<svg width="757" height="665" fill="none" xmlns="http://www.w3.org/2000/svg"><path d="M520.661 141.408a82.018 82.018 0 0 0-69.341-22.912c-26.481 4.015-49.877 20.977-76.534 23.582-30.263 3.003-58.673-12.806-87.291-23.056-28.619-10.25-64.909-13.372-85.365 9.082-17.3 18.965-16.389 49.2-32.562 69.126-13.469 16.484-35.504 22.47-54.47 32.118-31.458 16.022-56.768 45.456-63.82 80.035-7.053 34.579 6.108 73.525 35.12 93.666 31.538 21.877 76.067 20.196 104.867 45.561 19.378 17.089 27.815 43.219 43.372 63.834 26.186 34.681 74.148 51.296 116.178 40.243 21.486-5.645 41.011-17.726 62.793-22.088 56.366-11.368 113.078 30.586 169.747 20.634 45.079-7.876 80.535-52.276 78.378-97.985-1.604-33.446-20.712-64.438-20.805-97.905-.134-28.12 13.061-54.318 20.049-81.579 6.989-27.261 5.721-60.565-16.431-77.893-14.621-11.429-34.368-12.787-52.426-17.047-28.319-6.683-51.194-16.48-71.409-37.397" fill="#ECECEC"/><path d="m256.973 65.11 26.977 4.958 6.023 28.518 6.022-28.518 26.978-5.007-26.88-6.577-6.12-26.898-6.169 26.898-26.831 6.626zM85.824 337.11l26.978 4.958 6.022 28.518 6.022-28.518 26.978-5.007-26.88-6.577-6.12-26.898-6.169 26.898-26.83 6.626zM525.824 236.102l17.985 3.33 4.015 19.154 4.015-19.154 17.985-3.363-17.92-4.417-4.08-18.066-4.113 18.066-17.887 4.45z" fill="#CFFFEB"/><path d="m660.195 487.755.287-15.385 15.388-6.017-16.51-.642-5.314-14.441-1.179 15.452-14.469 5.945 15.614.849 6.183 14.239zM53.695 120.232l.287-15.386 15.388-6.017-16.51-.641-5.314-14.442-1.179 15.452-14.469 5.946 15.614.848 6.183 14.24zM118.844 490.232l.287-15.386 15.388-6.017-16.51-.641-5.313-14.442-1.179 15.452-14.47 5.946 15.615.848 6.182 14.24z" fill="#7E40D6"/><path d="m72.974 230.595 10.627 1.943 2.373 11.048 2.372-11.048 10.628-1.943-10.57-2.571-2.43-10.438-2.411 10.438-10.59 2.571z" fill="#CFFFEB"/><path d="m598.824 145.595 10.628 1.943 2.372 11.048 2.373-11.048 10.627-1.943-10.569-2.571-2.431-10.438-2.411 10.438-10.589 2.571zM367.568 655.719l.154-11.226 10.894-4.345-11.711-.499-3.824-10.555-.794 11.261-10.295 4.28 11.13.67 4.446 10.414z" fill="#7E40D6"/><path d="m207.824 150.562 15.114 2.69 3.386 15.334 3.386-15.334 15.114-2.69-15.065-3.538-3.435-14.438-3.435 14.438-15.065 3.538zM249.849 489.974l.14-15.351 14.558-5.887-15.683-.791-5.164-14.457-.986 15.444-13.666 5.786 14.808.988 5.993 14.268zM495.621 657.461l.278-14.96 14.973-5.864-16.068-.633-5.166-14.043-1.146 15.058-14.105 5.766 15.216.825 6.018 13.851zM20.974 271.586a3.49 3.49 0 0 1 2.14.982c.553.554.86 1.273.86 2.018 0 .745-.307 1.464-.86 2.018a3.49 3.49 0 0 1-2.14.982 3.49 3.49 0 0 1-2.14-.982 2.854 2.854 0 0 1-.86-2.018c0-.745.306-1.464.86-2.018a3.49 3.49 0 0 1 2.14-.982z" fill="#CFFFEB"/><path d="M458.824 237.586a3.49 3.49 0 0 1 2.14.982c.554.554.86 1.273.86 2.018 0 .745-.306 1.464-.86 2.018a3.49 3.49 0 0 1-2.14.982 3.488 3.488 0 0 1-2.139-.982c-.554-.554-.861-1.273-.861-2.018 0-.745.307-1.464.861-2.018a3.488 3.488 0 0 1 2.139-.982z" fill="#7E40D6"/><path d="M156.474 318.527c.663 0 1.299.264 1.767.733a2.497 2.497 0 0 1 0 3.535 2.496 2.496 0 0 1-3.535 0 2.5 2.5 0 0 1 1.768-4.268zM643.626 545.814a3.504 3.504 0 0 1 2.87-4.033 3.504 3.504 0 0 1 4.033 2.87 3.5 3.5 0 1 1-6.903 1.163zM114.324 98.586a4.5 4.5 0 1 1 0 8.999 4.5 4.5 0 0 1 0-9z" fill="#CFFFEB"/><path d="M548.474 64.586a4.501 4.501 0 1 1-.001 9.002 4.501 4.501 0 0 1 .001-9.002zM340.019 567.57c-.089-1.237.238-2.452.919-3.409.681-.958 1.668-1.59 2.77-1.776 1.103-.186 2.242.089 3.199.77.958.681 1.665 1.721 1.987 2.92.089 1.237-.239 2.452-.92 3.409-.681.958-1.668 1.59-2.77 1.776-1.102.186-2.242-.088-3.199-.77-.957-.681-1.665-1.721-1.986-2.92z" fill="#7E40D6"/><path d="M12.974 184.586c1.098.105 2.114.571 2.852 1.31.739.738 1.148 1.696 1.148 2.69 0 .993-.41 1.952-1.148 2.69-.738.739-1.754 1.205-2.852 1.31-1.098-.105-2.115-.571-2.853-1.31-.739-.738-1.147-1.697-1.147-2.69 0-.994.408-1.952 1.147-2.69.738-.739 1.755-1.205 2.853-1.31z" fill="#CFFFEB"/><path d="M472.824 80.586c1.098.105 2.114.571 2.853 1.31.739.738 1.147 1.696 1.147 2.69 0 .993-.408 1.952-1.147 2.69-.739.739-1.755 1.205-2.853 1.31-1.098-.105-2.114-.571-2.853-1.31-.738-.738-1.147-1.697-1.147-2.69 0-.994.409-1.952 1.147-2.69.739-.739 1.755-1.206 2.853-1.31z" fill="#7E40D6"/><path d="M155.474 247.527c.928 0 1.818.316 2.475.879.656.563 1.025 1.326 1.025 2.121 0 .796-.369 1.559-1.025 2.122-.657.562-1.547.878-2.475.878-.929 0-1.819-.316-2.475-.878-.657-.563-1.025-1.326-1.025-2.122 0-.795.368-1.558 1.025-2.121.656-.563 1.546-.879 2.475-.879z" fill="#CFFFEB"/><path d="M591.584 586.024a4.501 4.501 0 0 1 8.875-1.496 4.502 4.502 0 0 1-3.69 5.185 4.5 4.5 0 0 1-5.185-3.689z" fill="#7E40D6"/><g opacity=".1" fill="#7E40D6"><path opacity=".1" d="M646.086 332.979c-.939-.23-1.397-1.521-1.077-2.875.319-1.354 1.362-2.271 2.29-2.04.929.231 1.399 1.532 1.078 2.875-.321 1.343-1.362 2.271-2.291 2.04zM643.575 327.191c-.524-.129-.789-.894-.584-1.704.206-.81.796-1.366 1.32-1.237.523.128.778.895.585 1.714-.192.82-.822 1.348-1.321 1.227zM620.147 348.152c-.797-.197-1.202-1.315-.912-2.504.29-1.189 1.181-1.99 1.979-1.793.797.196 1.204 1.325.903 2.516-.301 1.191-1.211 1.949-1.97 1.781zM618.742 344.352a.942.942 0 0 1-.51-1.202.812.812 0 0 1 .305-.663.806.806 0 0 1 .712-.158.822.822 0 0 1 .623.841.833.833 0 0 1-.105.36.953.953 0 0 1-1.025.822zM620.623 343.383a.598.598 0 0 1-.31-.758c.099-.359.367-.598.628-.539a.61.61 0 0 1 .299.759c-.055.352-.367.598-.617.538zM618.422 330.061a1.834 1.834 0 1 1 1.72-1.43 1.597 1.597 0 0 1-1.72 1.43zM621.412 330.09a.856.856 0 0 1-.206-1.539c.185-.117.408-.159.623-.117a.86.86 0 0 1 .578 1.026.857.857 0 0 1-.372.513c-.185.117-.408.159-.623.117z"/></g><path d="M411.256 139.032c6.599.353 13.1 1.08 19.43 2.102 6.504 1.068 12.866 2.437 19.05 4.13a6.528 6.528 0 0 1 4.577 8.022 6.556 6.556 0 0 1-5.638 4.774c-29.122 3.421-55.332 17.201-74.598 37.747-18.958 20.195-31.186 46.915-32.842 76.7l-.025.209c-1.807 33.631 10.14 64.814 30.99 88.076 20.823 23.254 50.499 38.544 84.11 40.439l.209.024c24.208 1.296 47.111-4.506 66.734-15.644 20.307-11.513 37.056-28.714 48-49.512 1.676-3.197 5.634-4.404 8.802-2.736a6.562 6.562 0 0 1 3.462 6.403c-4.706 48.717-28.279 91.441-63.007 121.262-34.566 29.678-80.23 46.593-129.324 43.883-50.525-2.778-95.134-25.768-126.425-60.665-31.297-34.991-49.262-81.823-46.486-132.345 2.711-49.336 24.691-93.035 58.227-124.188 33.683-31.238 79.008-49.906 128.189-48.932.955.005 2.054.048 3.247.085l.029.008 3.289.158z" fill="#7E40D6"/><path d="M270.824 450.082c27.833-6.834 92-5.701 126 53.5-17 4-82.5-6.5-126-53.5z" fill="#928DED"/><circle cx="429.015" cy="483.015" r="9.015" fill="#ECECEC"/></svg>