<svg xmlns="http://www.w3.org/2000/svg" width="400" height="400.11" version="1.0"><g transform="translate(482.857 159.121)"><g style="fill:#fc0;fill-opacity:1;stroke:#000;stroke-opacity:1"><path d="m110.2 405 7.35 195.46s0 3.676 2.45 3.676 2.45-3.676 2.45-3.676L129.8 405" style="fill:#fc0;fill-opacity:1;stroke:#000;stroke-width:1.8379243599999999;stroke-opacity:1" transform="translate(-402.857 -364.066)"/><path d="M101.53 468.146c-11.254 24.597-1.59 44.697-12.833 66.169-11.244 21.472-4.214 39.16-4.968 49.011-.753 9.851-8.811 12.589-6.777 14.878 2.035 2.29 10.46-2.248 13.746-15.335 3.287-13.087-4.556-20.624 8.926-46.956 13.482-26.331 2.77-38.203 16.302-61.71M129.8 405l-7.35-195.46s0-3.676-2.45-3.676-2.45 3.676-2.45 3.676L110.2 405" style="fill:#fc0;fill-opacity:1;stroke:#000;stroke-width:1.8379243599999999;stroke-opacity:1" transform="translate(-402.857 -364.066)"/><path d="M138.47 341.854c11.254-24.597 1.59-44.697 12.833-66.17 11.244-21.472 4.214-39.16 4.968-49.01.753-9.852 8.811-12.589 6.777-14.879-2.035-2.29-10.46 2.249-13.746 15.336-3.287 13.087 4.556 20.624-8.926 46.955-13.482 26.332-2.77 38.204-16.302 61.712" style="fill:#fc0;fill-opacity:1;stroke:#000;stroke-width:1.8379244800000001;stroke-opacity:1" transform="translate(-402.857 -364.066)"/><path d="m120 395.196-195.406 7.353s-3.675 0-3.675 2.45c0 2.452 3.675 2.452 3.675 2.452L120 414.804" style="fill:#fc0;fill-opacity:1;stroke:#000;stroke-width:1.8379243599999999;stroke-opacity:1" transform="translate(-402.857 -364.066)"/><path d="M56.871 386.525c-24.59-11.257-44.684-1.59-66.15-12.837-21.467-11.246-39.15-4.215-48.998-4.969-9.848-.754-12.585-8.814-14.874-6.779-2.29 2.036 2.248 10.462 15.331 13.75 13.084 3.288 20.618-4.558 46.943 8.928 26.324 13.486 38.193 2.77 61.694 16.307" style="fill:#fc0;fill-opacity:1;stroke:#000;stroke-width:1.8379244800000001;stroke-opacity:1" transform="translate(-402.857 -364.066)"/><path d="m120 414.804 195.406-7.353s3.675 0 3.675-2.451-3.675-2.451-3.675-2.451L120 395.196" style="fill:#fc0;fill-opacity:1;stroke:#000;stroke-width:1.8379243599999999;stroke-opacity:1" transform="translate(-402.857 -364.066)"/><path d="M183.129 423.475c24.59 11.257 44.684 1.59 66.15 12.837 21.467 11.246 39.15 4.215 48.998 4.969 9.848.753 12.585 8.814 14.874 6.778 2.29-2.035-2.248-10.461-15.331-13.75-13.084-3.287-20.618 4.559-46.943-8.927-26.324-13.486-38.193-2.77-61.694-16.307M113.07 398.068l-132.975 143.41s-2.599 2.6-.866 4.332c1.732 1.733 4.331-.866 4.331-.866l143.37-133.012" style="fill:#fc0;fill-opacity:1;stroke:#000;stroke-width:1.8379244800000001;stroke-opacity:1" transform="translate(-402.857 -364.066)"/><path d="M62.301 436.587c-25.345 9.433-32.72 30.481-55.85 37.712-23.13 7.23-30.663 24.71-38.16 31.142-7.496 6.433-15.129 2.67-15.309 5.727-.18 3.059 8.985 5.808 20.561-1.12 11.576-6.93 11.357-17.807 39.505-26.89 28.147-9.084 28.965-25.056 55.152-32.106M126.93 411.932l132.975-143.41s2.6-2.6.866-4.333c-1.732-1.733-4.331.867-4.331.867L113.07 398.068" style="fill:#fc0;fill-opacity:1;stroke:#000;stroke-width:1.8379244800000001;stroke-opacity:1" transform="translate(-402.857 -364.066)"/><path d="M177.699 373.412c25.345-9.432 32.72-30.48 55.85-37.711 23.13-7.23 30.663-24.71 38.16-31.142 7.496-6.433 15.129-2.67 15.309-5.728.18-3.058-8.985-5.807-20.561 1.122s-11.357 17.806-39.505 26.89c-28.147 9.083-28.965 25.054-55.152 32.105M126.93 398.068-16.44 265.056s-2.599-2.6-4.331-.867c-1.733 1.734.866 4.333.866 4.333l132.975 143.41" style="fill:#fc0;fill-opacity:1;stroke:#000;stroke-width:1.8379244800000001;stroke-opacity:1" transform="translate(-402.857 -364.066)"/><path d="M88.421 347.285c-9.43-25.352-30.472-32.73-37.7-55.865-7.23-23.136-24.703-30.672-31.135-38.17-6.43-7.5-2.668-15.134-5.725-15.314-3.058-.18-5.806 8.988 1.12 20.566 6.928 11.58 17.802 11.36 26.883 39.516 9.08 28.155 25.048 28.973 32.097 55.167M113.07 411.932l143.37 133.012s2.599 2.6 4.331.866c1.733-1.733-.866-4.332-.866-4.332L126.93 398.068" style="fill:#fc0;fill-opacity:1;stroke:#000;stroke-width:1.8379244800000001;stroke-opacity:1" transform="translate(-402.857 -364.066)"/><path d="M151.579 462.715c9.43 25.352 30.472 32.73 37.7 55.865 7.23 23.136 24.703 30.671 31.135 38.17 6.43 7.499 2.668 15.134 5.725 15.314 3.058.18 5.806-8.988-1.12-20.567-6.928-11.579-17.802-11.36-26.883-39.515-9.08-28.155-25.048-28.973-32.097-55.167" style="fill:#fc0;fill-opacity:1;stroke:#000;stroke-width:1.8379244800000001;stroke-opacity:1" transform="translate(-402.857 -364.066)"/><path d="M110.945 401.248 42.958 584.643s-1.407 3.397.857 4.335c2.264.938 3.67-2.459 3.67-2.459l81.57-177.767" style="fill:#fc0;fill-opacity:1;stroke:#000;stroke-width:1.8379243599999999;stroke-opacity:1" transform="translate(-402.857 -364.066)"/><path d="M78.778 456.27c-19.807 18.416-18.569 40.685-37.171 56.219-18.603 15.534-18.876 34.566-23.34 43.379-4.466 8.813-12.957 8.257-11.954 11.151 1.004 2.895 10.524 1.927 18.567-8.906 8.044-10.833 3.68-20.798 26.21-39.965 22.53-19.166 17.175-34.235 38.671-50.773M129.055 408.752l67.987-183.395s1.407-3.397-.857-4.335c-2.264-.938-3.67 2.459-3.67 2.459l-81.57 177.767" style="fill:#fc0;fill-opacity:1;stroke:#000;stroke-width:1.8379243599999999;stroke-opacity:1" transform="translate(-402.857 -364.066)"/><path d="M161.222 353.73c19.807-18.416 18.569-40.685 37.171-56.22 18.603-15.533 18.876-34.565 23.34-43.378 4.466-8.813 12.957-8.257 11.954-11.152-1.004-2.894-10.524-1.926-18.567 8.907-8.044 10.833-3.68 20.798-26.21 39.964-22.53 19.167-17.175 34.236-38.671 50.774M123.75 395.943l-183.344-68.007s-3.395-1.406-4.333.858c-.937 2.264 2.458 3.671 2.458 3.671l177.718 81.592" style="fill:#fc0;fill-opacity:1;stroke:#000;stroke-width:1.8379243599999999;stroke-opacity:1" transform="translate(-402.857 -364.066)"/><path d="M68.745 363.767c-18.412-19.813-40.675-18.574-56.204-37.182-15.53-18.608-34.557-18.88-43.367-23.347-8.81-4.466-8.255-12.96-11.149-11.956-2.893 1.004-1.925 10.526 8.904 18.572 10.83 8.046 20.793 3.681 39.954 26.217 19.161 22.536 34.226 17.18 50.76 38.682M116.25 414.057l183.344 68.006s3.395 1.407 4.333-.857c.937-2.264-2.458-3.671-2.458-3.671L123.75 395.943" style="fill:#fc0;fill-opacity:1;stroke:#000;stroke-width:1.8379243599999999;stroke-opacity:1" transform="translate(-402.857 -364.066)"/><path d="M171.255 446.233c18.412 19.813 40.675 18.574 56.204 37.182 15.53 18.608 34.557 18.88 43.367 23.347 8.81 4.466 8.255 12.96 11.149 11.956 2.893-1.004 1.925-10.526-8.904-18.572-10.83-8.046-20.793-3.681-39.954-26.217-19.161-22.536-34.226-17.18-50.76-38.682M116.25 395.943-61.47 477.535s-3.395 1.407-2.458 3.671c.938 2.264 4.333.857 4.333.857l183.345-68.006" style="fill:#fc0;fill-opacity:1;stroke:#000;stroke-width:1.8379243599999999;stroke-opacity:1" transform="translate(-402.857 -364.066)"/><path d="M54.609 412.096c-27.025-.987-41.891 15.636-66.027 13.462-24.135-2.173-37.782 11.092-47.169 14.165-9.387 3.074-14.999-3.325-16.335-.569-1.336 2.757 6.08 8.805 19.425 6.835 13.345-1.97 17.305-12.104 46.785-9.721 29.48 2.383 36.345-12.06 63.236-8.55M123.75 414.057l177.719-81.592s3.395-1.407 2.458-3.671c-.938-2.265-4.333-.858-4.333-.858l-183.345 68.007" style="fill:#fc0;fill-opacity:1;stroke:#000;stroke-width:1.8379243599999999;stroke-opacity:1" transform="translate(-402.857 -364.066)"/><path d="M185.391 397.903c27.025.988 41.891-15.635 66.027-13.462 24.135 2.174 37.782-11.09 47.169-14.164s14.999 3.325 16.335.569c1.336-2.757-6.08-8.806-19.425-6.835-13.345 1.97-17.305 12.103-46.785 9.72-29.48-2.382-36.345 12.061-63.236 8.551M129.055 401.248l-81.57-177.767s-1.406-3.397-3.67-2.459c-2.264.938-.857 4.335-.857 4.335l67.987 183.395" style="fill:#fc0;fill-opacity:1;stroke:#000;stroke-width:1.8379243599999999;stroke-opacity:1" transform="translate(-402.857 -364.066)"/><path d="M112.905 339.59c.988-27.032-15.63-41.902-13.458-66.044 2.173-24.142-11.088-37.793-14.16-47.182-3.073-9.39 3.324-15.003.568-16.34-2.756-1.337-8.803 6.08-6.832 19.43 1.97 13.35 12.1 17.31 9.718 46.798-2.382 29.488 12.057 36.356 8.547 63.254M110.945 408.752l81.57 177.767s1.406 3.397 3.67 2.459c2.264-.938.857-4.335.857-4.335l-67.987-183.395" style="fill:#fc0;fill-opacity:1;stroke:#000;stroke-width:1.8379243599999999;stroke-opacity:1" transform="translate(-402.857 -364.066)"/><path d="M127.095 470.41c-.988 27.032 15.63 41.902 13.458 66.044-2.173 24.142 11.088 37.792 14.16 47.182 3.073 9.39-3.324 15.003-.568 16.34 2.756 1.337 8.803-6.081 6.832-19.43-1.97-13.35-12.1-17.31-9.718-46.798 2.382-29.488-12.057-36.356-8.547-63.254" style="fill:#fc0;fill-opacity:1;stroke:#000;stroke-width:1.8379243599999999;stroke-opacity:1" transform="translate(-402.857 -364.066)"/></g><g style="fill:#000;fill-opacity:1"><g style="fill:#000;fill-opacity:1"><path style="fill:#000;fill-opacity:1;stroke:none;stroke-width:1.5" d="m115.1 405 4.9 134.187L124.9 405M104.633 474.405c-8.73 24.485.466 40.738-11.256 61.488 13.024-14.858 4.438-34.113 15.814-59.31" transform="translate(-402.857 -364.066)"/><path d="m116.535 401.534-91.393 98.35 98.323-91.418" style="fill:#000;fill-opacity:1;stroke:none;stroke-width:1.5" transform="translate(-402.857 -364.066)"/><path d="m115.473 403.124-46.81 125.849 55.864-122.097M79.25 463.24c-17.434 19.279-15.155 37.815-33.923 52.498 17.716-8.741 17.15-29.817 37.3-48.741" style="fill:#000;fill-opacity:1;stroke:none;stroke-width:1.5" transform="translate(-402.857 -364.066)"/></g><g style="fill:#000;fill-opacity:1"><path d="M124.9 405 120 270.813 115.1 405M135.367 335.595c8.73-24.485-.466-40.738 11.256-61.488-13.024 14.858-4.438 34.113-15.814 59.31" style="fill:#000;fill-opacity:1;stroke:none;stroke-width:1.5" transform="translate(-402.857 -364.066)"/><path d="M120 400.098-14.15 405 120 409.902M50.614 389.629c-24.478-8.733-40.726.465-61.47-11.26 14.853 13.028 34.102 4.44 59.293 15.819M60.07 443.208c-23.482 11.138-28.468 29.135-51.425 35.517 19.712-1.295 27.253-20.983 53.109-30.753" style="fill:#000;fill-opacity:1;stroke:none;stroke-width:1.5" transform="translate(-402.857 -364.066)"/><path style="fill:#000;fill-opacity:1;stroke:none;stroke-width:1.5" d="m123.465 401.534-98.323-91.419 91.393 98.351M81.803 345.054c-11.135-23.489-29.127-28.477-35.507-51.44 1.294 19.718 20.976 27.26 30.744 53.124" transform="translate(-402.857 -364.066)"/><path style="fill:#000;fill-opacity:1;stroke:none;stroke-width:1.5" d="m124.527 406.876 46.81-125.849-55.864 122.097" transform="translate(-402.857 -364.066)"/><path d="M121.875 400.471-3.938 353.65l122.063 55.88M61.776 364.239c-19.273-17.439-37.804-15.16-52.483-33.933 8.738 17.721 29.808 17.156 48.728 37.311" style="fill:#000;fill-opacity:1;stroke:none;stroke-width:1.5" transform="translate(-402.857 -364.066)"/><path style="fill:#000;fill-opacity:1;stroke:none;stroke-width:1.5" d="m118.125 400.471-122.063 55.88 125.813-46.822M50.015 417.359c-25.956 1.302-37.448 16.02-61.099 13.128 18.707 6.35 33.206-8.953 60.832-8.082" transform="translate(-402.857 -364.066)"/><path d="M124.527 403.124 68.663 281.027l46.81 125.849M107.644 334.996c-1.3-25.963-16.015-37.459-13.124-61.116-6.348 18.711 8.95 33.214 8.08 60.848" style="fill:#000;fill-opacity:1;stroke:none;stroke-width:1.5" transform="translate(-402.857 -364.066)"/></g><g style="fill:#000;fill-opacity:1"><path style="fill:#000;fill-opacity:1;stroke:none;stroke-width:1.5" d="M120 409.902 254.15 405 120 400.098M189.386 420.371c24.478 8.733 40.726-.466 61.47 11.26-14.853-13.028-34.102-4.44-59.293-15.819" transform="translate(-402.857 -364.066)"/><path d="m123.465 408.466 91.393-98.35-98.323 91.418M179.93 366.792c23.482-11.138 28.468-29.135 51.425-35.517-19.712 1.294-27.253 20.982-53.109 30.753" style="fill:#000;fill-opacity:1;stroke:none;stroke-width:1.5" transform="translate(-402.857 -364.066)"/><path d="m116.535 408.466 98.323 91.418-91.393-98.35M158.197 464.946c11.135 23.488 29.127 28.476 35.507 51.44-1.294-19.718-20.976-27.26-30.744-53.124M160.75 346.76c17.434-19.279 15.155-37.815 33.923-52.498-17.716 8.74-17.15 29.817-37.3 48.741" style="fill:#000;fill-opacity:1;stroke:none;stroke-width:1.5" transform="translate(-402.857 -364.066)"/><path style="fill:#000;fill-opacity:1;stroke:none;stroke-width:1.5" d="m118.125 409.529 125.813 46.822-122.063-55.88M178.224 445.761c19.273 17.439 37.804 15.16 52.484 33.933-8.74-17.722-29.81-17.156-48.729-37.311" transform="translate(-402.857 -364.066)"/><path style="fill:#000;fill-opacity:1;stroke:none;stroke-width:1.5" d="m121.875 409.529 122.063-55.88-125.813 46.822M189.985 392.64c25.956-1.3 37.448-16.02 61.099-13.127-18.707-6.35-33.206 8.953-60.832 8.082" transform="translate(-402.857 -364.066)"/><path style="fill:#000;fill-opacity:1;stroke:none;stroke-width:1.5" d="m115.473 406.876 55.864 122.097-46.81-125.849M132.356 475.004c1.3 25.963 16.015 37.459 13.124 61.116 6.348-18.712-8.95-33.215-8.08-60.848" transform="translate(-402.857 -364.066)"/></g></g><circle style="fill:#fc0;fill-opacity:1;stroke:#000;stroke-width:1;stroke-opacity:1" r="65" transform="matrix(1.22511 0 0 1.22545 -282.857 40.934)"/></g></svg>